<svg width="333" height="43" viewBox="0 0 333 43" fill="none" xmlns="http://www.w3.org/2000/svg">
<path d="M165.401 6.0027H167.987V17.1806H165.401V6.0027ZM183.444 6.0027V17.1806H181.32L175.747 10.3943V17.1806H173.193V6.0027H175.332L180.89 12.789V6.0027H183.444ZM190.965 8.11069H187.391V6.0027H197.129V8.11069H193.552V17.1806H190.965V8.11069ZM209.728 15.1048V17.1806H201.073V6.0027H209.52V8.07847H203.64V10.5087H208.833V12.5224H203.644V15.1096L209.728 15.1048ZM221.464 17.1806L219.308 14.0665H216.93V17.1806H214.342V6.0027H219.181C220.066 5.98228 220.944 6.15118 221.758 6.49808C222.445 6.79245 223.03 7.28101 223.443 7.90367C223.847 8.54851 224.053 9.29826 224.033 10.0592C224.053 10.8188 223.845 11.5669 223.435 12.2066C223.016 12.8242 222.425 13.3047 221.734 13.5881L224.241 17.1806H221.464ZM221.416 10.0584C221.433 9.78713 221.386 9.51572 221.281 9.26515C221.176 9.01458 221.015 8.79155 220.81 8.61332C220.295 8.24454 219.669 8.06677 219.038 8.11069H216.93V12.0069H219.038C219.67 12.051 220.298 11.8701 220.81 11.4962C221.014 11.3187 221.175 11.0969 221.28 10.8476C221.385 10.5984 221.431 10.3284 221.416 10.0584ZM238.886 6.0027V17.1806H236.762L231.188 10.3943V17.1806H228.633V6.0027H230.772L236.33 12.789V6.0027H238.886ZM251.452 14.7826H246.262L245.272 17.1782H242.622L247.604 6.00028H250.16L255.154 17.1782H252.439L251.452 14.7826ZM250.637 12.8188L248.865 8.53921L247.093 12.8188H250.637ZM260.633 8.10827H257.056V6.00028H266.797V8.10827H263.22V17.1782H260.635L260.633 8.10827ZM270.742 6.00028H273.328V17.1782H270.742V6.00028ZM283.948 17.3699C282.854 17.3869 281.774 17.1287 280.806 16.6192C279.901 16.1437 279.144 15.4284 278.619 14.5514C278.087 13.6559 277.814 12.6309 277.828 11.5896C277.814 10.5484 278.087 9.52331 278.619 8.62781C279.144 7.75088 279.901 7.03552 280.806 6.5601C281.774 6.05053 282.854 5.79238 283.948 5.80938C285.037 5.79241 286.114 6.05061 287.077 6.5601C287.98 7.03835 288.736 7.75305 289.265 8.62781C289.801 9.52159 290.078 10.5473 290.063 11.5896C290.078 12.6319 289.801 13.6577 289.265 14.5514C288.736 15.4262 287.98 16.1409 287.077 16.6192C286.114 17.1293 285.038 17.3884 283.949 17.3723L283.948 17.3699ZM283.948 15.166C284.574 15.1749 285.19 15.0179 285.736 14.7109C286.263 14.4123 286.697 13.9727 286.989 13.4415C287.299 12.8738 287.456 12.2354 287.444 11.5888C287.456 10.9423 287.299 10.3039 286.989 9.73618C286.697 9.2049 286.263 8.76534 285.736 8.46672C285.19 8.15979 284.574 8.00276 283.948 8.01161C283.322 8.00276 282.705 8.15979 282.16 8.46672C281.632 8.76534 281.198 9.2049 280.906 9.73618C280.596 10.3039 280.44 10.9423 280.451 11.5888C280.44 12.2354 280.596 12.8738 280.906 13.4415C281.198 13.9727 281.632 14.4123 282.16 14.7109C282.705 15.0188 283.322 15.1767 283.949 15.1684L283.948 15.166ZM304.818 6.00028V17.1782H302.694L297.121 10.3919V17.1782H294.566V6.0027H296.705L302.263 12.789V6.0027L304.818 6.00028ZM317.384 14.7802H312.194L311.204 17.1757H308.553L313.535 5.99787H316.09L321.084 17.1757H318.37L317.384 14.7802ZM316.57 12.8164L314.797 8.53679L313.025 12.8164H316.57ZM324.809 6.0027H327.396V15.0726H333.001V17.1806H324.809V6.0027ZM169.073 36.7437C168.205 36.746 167.342 36.6251 166.509 36.3844C165.795 36.1977 165.121 35.881 164.521 35.4501L165.401 33.5016C165.921 33.8747 166.498 34.1616 167.109 34.3514C167.748 34.5619 168.416 34.6706 169.089 34.6736C169.652 34.7096 170.214 34.5945 170.717 34.3401C170.876 34.2564 171.008 34.1312 171.101 33.978C171.194 33.8248 171.243 33.6493 171.244 33.4701C171.246 33.3432 171.219 33.2174 171.165 33.1025C171.111 32.9876 171.032 32.8866 170.932 32.8072C170.696 32.6162 170.425 32.4726 170.134 32.3843C169.812 32.2769 169.373 32.1599 168.817 32.0331C168.108 31.873 167.408 31.6704 166.723 31.4266C166.182 31.2259 165.701 30.8907 165.325 30.4528C164.917 29.9489 164.71 29.3121 164.742 28.6646C164.736 28.0366 164.919 27.4213 165.269 26.8997C165.666 26.3363 166.218 25.9008 166.858 25.6464C167.682 25.316 168.565 25.1583 169.453 25.1832C170.159 25.182 170.862 25.2677 171.547 25.4385C172.178 25.5881 172.781 25.836 173.335 26.1731L172.537 28.137C171.599 27.578 170.531 27.2752 169.439 27.259C168.882 27.2192 168.324 27.3412 167.834 27.6102C167.675 27.7062 167.543 27.8422 167.452 28.0046C167.361 28.167 167.314 28.3503 167.316 28.5365C167.315 28.7233 167.372 28.9057 167.48 29.0587C167.587 29.2117 167.739 29.3278 167.914 29.3911C168.503 29.6363 169.116 29.821 169.743 29.9421C170.452 30.1022 171.152 30.3048 171.837 30.5486C172.375 30.7472 172.855 31.0763 173.235 31.5063C173.644 32.0031 173.852 32.6355 173.818 33.2784C173.822 33.9023 173.636 34.5126 173.283 35.0272C172.88 35.5909 172.323 36.0261 171.678 36.2805C170.85 36.6108 169.964 36.7684 169.073 36.7437ZM186.793 34.4762V36.552H178.142V25.3741H186.586V27.4499H180.706V29.8768H185.895V31.8906H180.714V34.4778L186.793 34.4762ZM196.729 36.7437C195.653 36.759 194.591 36.5036 193.639 36.001C192.739 35.5271 191.987 34.8145 191.465 33.9414C190.931 33.0399 190.658 32.0084 190.674 30.961C190.658 29.9137 190.931 28.8822 191.465 27.9807C191.987 27.1075 192.739 26.3949 193.639 25.921C194.596 25.4172 195.664 25.1618 196.745 25.1784C197.647 25.165 198.541 25.3389 199.372 25.689C200.136 26.0162 200.812 26.5197 201.344 27.1583L199.683 28.6887C199.343 28.2732 198.914 27.9397 198.427 27.7129C197.941 27.4861 197.409 27.372 196.873 27.379C196.226 27.3676 195.588 27.5244 195.02 27.8341C194.486 28.1316 194.047 28.5742 193.755 29.1108C193.445 29.6785 193.288 30.3169 193.299 30.9634C193.288 31.6097 193.445 32.2478 193.755 32.8153C194.049 33.3497 194.49 33.7898 195.024 34.0847C195.592 34.3944 196.23 34.5512 196.877 34.5398C197.415 34.5462 197.948 34.4303 198.434 34.2007C198.921 33.9712 199.35 33.6341 199.687 33.2148L201.348 34.7452C200.818 35.3932 200.138 35.9029 199.368 36.2306C198.533 36.5816 197.635 36.7563 196.729 36.7437ZM210.51 36.7437C209.831 36.7847 209.151 36.6886 208.51 36.4609C207.87 36.2332 207.282 35.8787 206.781 35.4186C206.314 34.9105 205.956 34.313 205.727 33.6623C205.497 33.0116 205.403 32.3212 205.448 31.6328V25.3733H208.035V31.537C208.035 33.5383 208.866 34.539 210.527 34.539C210.87 34.562 211.214 34.509 211.534 34.3837C211.854 34.2583 212.143 34.0639 212.379 33.8141C212.859 33.157 213.086 32.3492 213.018 31.5386V25.3749H215.573V31.6344C215.618 32.3228 215.524 33.0132 215.294 33.6639C215.065 34.3146 214.707 34.9121 214.24 35.4203C213.739 35.8804 213.15 36.2347 212.509 36.4621C211.868 36.6895 211.188 36.7853 210.509 36.7437H210.51ZM227.804 36.552L225.648 33.4379H223.269V36.552H220.682V25.3741H225.521C226.406 25.3537 227.284 25.5226 228.099 25.8695C228.785 26.1638 229.37 26.6524 229.783 27.2751C230.187 27.9199 230.393 28.6697 230.373 29.4306C230.393 30.1902 230.185 30.9383 229.775 31.578C229.356 32.1956 228.765 32.6761 228.074 32.9595L230.581 36.552H227.804ZM227.756 29.4298C227.773 29.1585 227.727 28.8871 227.621 28.6365C227.516 28.386 227.355 28.163 227.15 27.9847C226.636 27.6159 226.009 27.4382 225.378 27.4821H223.269V31.3783H225.377C226.009 31.4224 226.637 31.2415 227.149 30.8676C227.353 30.6902 227.514 30.4684 227.619 30.2191C227.725 29.9699 227.771 29.6999 227.756 29.4298ZM234.974 25.3741H237.562V36.552H234.973L234.974 25.3741ZM245.082 27.4821H241.504V25.3741H251.245V27.4821H247.668V36.552H245.082L245.082 27.4821ZM260.348 32.5922V36.552H257.761V32.5599L253.434 25.3741H256.181L259.167 30.34L262.153 25.3741H264.691L260.348 32.5922Z" fill="black"/>
<path d="M65.0244 5.81152V36.7426H57.8659V24.0617H43.8132V36.7426H36.6523V5.81152H43.8132V18.0076H57.8659V5.81152H65.0244ZM79.4299 5.81152H86.5883V36.7426H79.4299V5.81152ZM100.994 5.81152H108.152V30.9108H123.663V36.7426H100.994V5.81152ZM138.288 11.6441H128.391V5.81152H155.346V11.6441H145.448V36.7426H138.29L138.288 11.6441Z" fill="black"/>
<path d="M12.2004 13.8789V23.2227H10.3002V16.028H7.9562V23.2227H7.95139V25.5667H7.9562V34.469L14.5435 42.9187V25.5643H16.6217V34.7993H18.9657V14.1181C21.2918 14.3127 23.5978 14.6998 25.8599 15.2756L26.4649 13.0114C23.6494 12.301 20.7736 11.855 17.8751 11.6791L16.6217 11.5921V23.2203H14.5435V11.5244H13.3716C8.95282 11.4706 4.54466 11.9701 0.25 13.0114L0.854909 15.2756C4.56931 14.3692 8.37706 13.9005 12.2004 13.8789ZM12.2004 36.0978L10.3002 33.6603V25.5643H12.2004V36.0978Z" fill="#EDBB5F"/>
<path d="M19.0669 7.14882H16.8228V0.0830078H14.4796V7.14882H12.5375V0.0830078H10.1936V7.14882H8.08398V9.49282H19.0669V7.14882Z" fill="#EDBB5F"/>
</svg>
